<svg width="138" height="130" fill="none" xmlns="http://www.w3.org/2000/svg"><path d="m76.296 108.125-22.678 8.086-.86 3.005c-1.22 4.278-5.86 7.776-10.307 7.776h45.012l-11.167-18.867Z" fill="#ADACA7"/><path d="m85.242 119.216-3.17-11.091L69 100.039l-13.072 8.086-2.31 8.086h22.678l.86 3.005c1.221 4.278 5.86 7.776 10.307 7.776h8.086c-4.447 0-9.086-3.498-10.307-7.776Z" fill="#8F8F8B"/><path d="M119.807 108.125h8.086c4.447 0 8.086-3.639 8.086-8.086V83.867l-16.172-16.172v40.43Z" fill="#ADACA7"/><path d="M2.021 100.039c0 4.447 3.64 8.086 8.086 8.086h109.7c4.447 0 8.086-3.639 8.086-8.086V51.523L2.021 83.867v16.172Z" fill="#CBC9C2"/><path d="M127.893 3.008h-8.086l8.086 80.86h8.086V11.093c0-4.448-3.639-8.086-8.086-8.086Z" fill="#404242"/><path d="M127.893 11.094c0-4.448-3.639-8.086-8.086-8.086h-109.7c-4.447 0-8.086 3.638-8.086 8.086v72.773h125.872v-8.086L69 43.434l58.893-32.34Z" fill="#565959"/><path d="m127.893 11.092-8.085-.005L69 43.434l50.807 32.347 8.085-.005.001-64.683Z" fill="#4B88D5"/><path d="m119.807 11.092-109.676-.006c-.007.004-.012 64.694-.024 64.695l109.697-.005c.001 0-.009-64.683.003-64.684Z" fill="#69A7FF"/><path d="M69 100.039a4.043 4.043 0 1 0 0-8.086 4.043 4.043 0 0 0 0 8.086Z" fill="#fff"/><path d="M127.893.986H10.107C4.534.986 0 5.52 0 11.094v88.945c0 5.573 4.534 10.107 10.107 10.107h43.14l-2.432 8.516c-.977 3.42-4.807 6.309-8.364 6.309H27.223a2.021 2.021 0 1 0 0 4.043h83.554a2.022 2.022 0 1 0 0-4.043H95.549c-3.557 0-7.387-2.889-8.364-6.309l-2.433-8.516h43.141c5.573 0 10.107-4.534 10.107-10.107V11.094C138 5.52 133.466.986 127.893.986ZM10.107 5.03h117.786a6.071 6.071 0 0 1 6.064 6.065v70.752H4.043V11.094a6.071 6.071 0 0 1 6.064-6.065Zm73.19 114.744c.556 1.942 1.658 3.726 3.104 5.198H51.599c1.446-1.472 2.549-3.257 3.103-5.198l2.75-9.627h23.095l2.75 9.627Zm44.596-13.669H10.107a6.072 6.072 0 0 1-6.064-6.065v-14.15h129.914v14.15a6.071 6.071 0 0 1-6.064 6.065Z" fill="#000"/><path d="M10.107 77.803h117.786a2.021 2.021 0 0 0 2.021-2.022V11.094a2.021 2.021 0 0 0-2.021-2.022H10.107a2.021 2.021 0 0 0-2.021 2.022v28.3a2.021 2.021 0 1 0 4.043 0V13.116H125.87V73.76H12.129V47.48a2.021 2.021 0 1 0-4.043 0v28.301c0 1.117.905 2.022 2.021 2.022ZM69 89.932a6.071 6.071 0 0 0-6.065 6.064A6.072 6.072 0 0 0 69 102.061a6.072 6.072 0 0 0 6.064-6.065A6.071 6.071 0 0 0 69 89.932Zm0 8.086a2.024 2.024 0 0 1-2.022-2.022c0-1.115.907-2.021 2.022-2.021 1.115 0 2.022.906 2.022 2.021A2.024 2.024 0 0 1 69 98.018Z" fill="#000"/></svg>